<svg width="90" height="90" viewBox="0 0 90 90" fill="none" xmlns="http://www.w3.org/2000/svg">
<path d="M45 82.5C65.7107 82.5 82.5 65.7107 82.5 45C82.5 24.2893 65.7107 7.5 45 7.5C24.2893 7.5 7.5 24.2893 7.5 45C7.5 65.7107 24.2893 82.5 45 82.5Z" stroke="#007FA3" stroke-width="2" stroke-linecap="round" stroke-linejoin="round"/>
<path d="M34.0874 33.7499C34.969 31.2437 36.7092 29.1303 38.9997 27.7842C41.2902 26.438 43.9833 25.946 46.6018 26.3951C49.2204 26.8443 51.5955 28.2057 53.3064 30.2382C55.0174 32.2707 55.9539 34.8431 55.9499 37.4999C55.9499 44.9999 44.6999 48.7499 44.6999 48.7499" stroke="#007FA3" stroke-width="2" stroke-linecap="round" stroke-linejoin="round"/>
<path d="M45 63.75H45.0375" stroke="#007FA3" stroke-width="2" stroke-linecap="round" stroke-linejoin="round"/>
</svg>
